<svg width="18" height="16" viewBox="0 0 18 16" fill="none" xmlns="http://www.w3.org/2000/svg">
<path d="M2.24264 8.24264L8.29549 14.2955C8.68458 14.6846 9.31542 14.6846 9.70451 14.2955L15.7574 8.24264C16.553 7.44699 17 6.36786 17 5.24264C17 2.8995 15.1005 1 12.7574 1C11.6321 1 10.553 1.44699 9.75736 2.24264L9.04715 2.95285C9.02111 2.97889 8.97889 2.97889 8.95285 2.95285L8.24264 2.24264C7.44699 1.44699 6.36786 1 5.24264 1C2.8995 1 1 2.8995 1 5.24264C1 6.36786 1.44699 7.44699 2.24264 8.24264Z" stroke="white" stroke-width="2"/>
</svg>
