<svg width="22" height="21" viewBox="0 0 22 21" fill="none" xmlns="http://www.w3.org/2000/svg">
<path d="M10.1437 1.92705C10.443 1.00574 11.7464 1.00574 12.0458 1.92705L13.5644 6.60081C13.6983 7.01284 14.0822 7.2918 14.5154 7.2918H19.4297C20.3984 7.2918 20.8012 8.53141 20.0175 9.10081L16.0418 11.9894C15.6913 12.244 15.5446 12.6954 15.6785 13.1074L17.1971 17.7812C17.4964 18.7025 16.442 19.4686 15.6583 18.8992L11.6825 16.0106C11.332 15.756 10.8574 15.756 10.5069 16.0106L6.5312 18.8992C5.74749 19.4686 4.69301 18.7025 4.99236 17.7812L6.51096 13.1074C6.64483 12.6954 6.49817 12.244 6.14769 11.9894L2.17195 9.10081C1.38823 8.53141 1.79101 7.2918 2.75973 7.2918H7.67402C8.10724 7.2918 8.4912 7.01284 8.62507 6.60081L10.1437 1.92705Z" stroke="#111111" stroke-width="2"/>
</svg>
